<svg xmlns="http://www.w3.org/2000/svg" width="146.413" height="35.618" viewBox="0 0 146.413 35.618">
  <g id="Group_989" data-name="Group 989" transform="translate(6870.231 -2972.908)">
    <path id="Path_16032" data-name="Path 16032" d="M-6855.547,2972.908l-14.685,20.413h7.343l-2.761,15.206,16.039-21.142-7.707-.521Z" fill="#1956e2"/>
    <path id="Path_16033" data-name="Path 16033" d="M-6715.069,3044.79a10.341,10.341,0,0,1-3.352-.493,7.408,7.408,0,0,1-2.6-1.547,8.9,8.9,0,0,1-2.258-3.139,9.654,9.654,0,0,1-.8-3.888,7,7,0,0,1,.482-2.681,5.018,5.018,0,0,1,1.42-1.961,4.959,4.959,0,0,1,1.893-.956,11.418,11.418,0,0,1,2.888-.3h2.326l.966,3.42h-2.79a3.734,3.734,0,0,0-2.448.636,2.65,2.65,0,0,0-.735,2.1,5.137,5.137,0,0,0,1.582,3.972,6.144,6.144,0,0,0,4.332,1.459h.306l-1.016,3.371Zm10.19,0-3.469,2.217a4.376,4.376,0,0,1-.606-1.729,22.354,22.354,0,0,1-.183-3.356v-3.065l-4.337-9.028h4.337l2.021,4.888,2-4.888h4.356l-4.356,9.028v2.79q0,1.281.054,2.03A4.632,4.632,0,0,0-6704.879,3044.79Zm5.431-10.979h3.923v7.569h2.8a1.352,1.352,0,0,0,.823-.207.733.733,0,0,0,.271-.621,2.572,2.572,0,0,0-.936-1.764,12.935,12.935,0,0,0-2.858-1.952,18.953,18.953,0,0,0,2.435-1.779q.738-.685.739-1.148a.592.592,0,0,0-.271-.537,1.657,1.657,0,0,0-.862-.172h-6.762l.907-3.371h6.6a6.219,6.219,0,0,1,3.563.838,2.843,2.843,0,0,1,1.2,2.493,3.751,3.751,0,0,1-.464,1.833,5.851,5.851,0,0,1-1.458,1.666,6.657,6.657,0,0,1,1.941,2,4.433,4.433,0,0,1,.67,2.316,3.849,3.849,0,0,1-.424,1.838,3.282,3.282,0,0,1-1.252,1.286,4.482,4.482,0,0,1-1.616.532,22.7,22.7,0,0,1-3.193.158h-5.775Zm24.127-.651h-5.992v2.326h5.471l-1,3.371h-4.475v2.563h6.5l-1.074,3.371h-9.441v-14.961h9.106Zm11.078,5.214a34.769,34.769,0,0,0,2.07,3.43,23.555,23.555,0,0,0,2.257,2.809l-3.193,2.375a30.767,30.767,0,0,1-3.114-4.184,41.6,41.6,0,0,1-2.681-5.1,15.346,15.346,0,0,0,2.631-2.036,2.43,2.43,0,0,0,.838-1.552.819.819,0,0,0-.3-.675,1.348,1.348,0,0,0-.862-.241h-7.105l.906-3.371h7.008a5.448,5.448,0,0,1,3.494,1,3.38,3.38,0,0,1,1.246,2.794,4.491,4.491,0,0,1-.793,2.572A7.868,7.868,0,0,1-6664.243,3038.373Zm-8.762-4.563h4.021v10.979H-6673Zm14.213,0h4.021v7.53a4.678,4.678,0,0,0,3.238-1.71,5.519,5.519,0,0,0,1.267-3.662,2.806,2.806,0,0,0-.705-2.055,2.719,2.719,0,0,0-2.025-.714h-6.5l.907-3.371h5.549a11.43,11.43,0,0,1,2.946.305,5.047,5.047,0,0,1,1.941,1.015,4.806,4.806,0,0,1,1.386,1.957,7.347,7.347,0,0,1,.468,2.706,9.143,9.143,0,0,1-.769,3.686,8.672,8.672,0,0,1-2.158,3.016,8.281,8.281,0,0,1-2.933,1.74,12.617,12.617,0,0,1-3.967.537h-2.671Zm23.092-3.982h2.405l.906,3.371h-3.045a6.449,6.449,0,0,0-3.475.813,4.933,4.933,0,0,0-1.937,2.606h3.814v-2.809h4.041v10.979h-4.041v-4.721h-4.219a9.163,9.163,0,0,0,.443,2.4,10.751,10.751,0,0,0,1.094,2.321l-3.192,2.1a15.532,15.532,0,0,1-1.8-3.7,12.094,12.094,0,0,1-.6-3.75,11.23,11.23,0,0,1,.715-4.021,8.9,8.9,0,0,1,2.016-3.184,7.616,7.616,0,0,1,2.912-1.809A11.988,11.988,0,0,1-6635.7,3029.828Zm13.927,3.42h-3.933a1.106,1.106,0,0,0-.586.118.423.423,0,0,0-.183.384.652.652,0,0,0,.084.306,1.96,1.96,0,0,0,.28.375l3.272,3.657a6.666,6.666,0,0,1,1.108,1.646,3.916,3.916,0,0,1,.36,1.626,3.424,3.424,0,0,1-.345,1.523,3.1,3.1,0,0,1-.967,1.158,3.513,3.513,0,0,1-1.369.576,13.206,13.206,0,0,1-2.5.173H-6630l-.986-3.45h4.356a.858.858,0,0,0,.527-.138.484.484,0,0,0,.183-.414.63.63,0,0,0-.084-.271,1.878,1.878,0,0,0-.222-.33l-3.577-3.992a4.688,4.688,0,0,1-.848-1.38,4.072,4.072,0,0,1-.3-1.508,3.754,3.754,0,0,1,.178-1.163,3.454,3.454,0,0,1,.522-1.015,2.915,2.915,0,0,1,1.39-1,8.1,8.1,0,0,1,2.532-.3h3.646Zm6.081-3.42v4.691h4.012v-4.691h4.021v14.961h-4.021v-6.821h-4.012v3.677q0,1.389.05,2.094a4.386,4.386,0,0,0,.167,1.05l-3.469,2.217a4.376,4.376,0,0,1-.606-1.729,22.354,22.354,0,0,1-.183-3.356v-12.093Z" transform="translate(-116.158 -47.575)" fill="#fff"/>
  </g>
</svg>
